:SAMPLES-PER-SECOND 30
:FULLY-SPECIFIED
:DEGREES
1
root  28.1544 39.7956 2.12991 -158.179 -85.4512 154.789
RightUpLeg  6.65173 -8.38451 -4.4164
RightLeg  5.2607 4.13333 0.0300265
RightFoot  -6.87843 -0.00337425 -1.12321
RightToes  5.82063e-011 0 -3.6325e-017
Spine  3.32021 0.0753145 0.471711
Spine1  2.61687 0.411522 -1.03967
HEad  -4.66603 -0.103521 -3.53222
LeftShoulder1  0.163545 1.91611 -2.09265
LeftArm  -22.24 6.74912 -17.3157
LeftForeArm  -2.96838 0.431539 3.43038
LeftHand  -0.0407029 7.5002 0.183954
RightShoulder  0.10515 -2.62411 4.12276
RightArm  -8.86383 1.36447 7.01107
RightForeArm  0.0872056 0.190383 -2.43362
RightHand  -0.0121593 6.73787 -0.467464
LeftUpLeg  6.29725 6.95302 4.5602
LeftLeg  0.441057 -0.483428 1.39218
LeftFoot  -1.71227 0.206118 -2.39174
LeftToes  -1.20963e-009 8.6283e-011 2.04439e-011
2
root  28.1004 39.7915 2.10699 -158.299 -85.4383 154.974
RightUpLeg  6.66682 -8.34622 -4.36945
RightLeg  5.26962 4.08496 0.0140802
RightFoot  -6.96204 -0.00324373 -1.12524
RightToes  5.82063e-011 0 -3.6325e-017
Spine  3.31877 0.0880959 0.652071
Spine1  2.56663 0.462383 -1.23918
HEad  -4.77683 0.174093 -3.34072
LeftShoulder1  0.165358 1.89621 -2.08007
LeftArm  -22.4054 6.72745 -17.3957
LeftForeArm  -2.71749 0.386296 3.52141
LeftHand  -0.0436957 7.66793 -0.13734
RightShoulder  0.111322 -2.584 4.3105
RightArm  -8.83693 1.46505 6.76769
RightForeArm  0.0498562 0.175937 -2.41498
RightHand  -0.0170074 6.32021 -0.507012
LeftUpLeg  6.30219 7.01679 4.62553
LeftLeg  0.484817 -0.546686 1.35783
LeftFoot  -1.77445 0.200488 -2.30418
LeftToes  -1.20963e-009 8.6283e-011 2.04439e-011
3
root  28.0351 39.777 2.07473 -159.279 -85.4188 156.004
RightUpLeg  6.71781 -8.32246 -4.27068
RightLeg  5.28933 4.11912 0.0375034
RightFoot  -7.15154 -0.0114671 -1.03062
RightToes  5.82063e-011 0 -3.6325e-017
Spine  3.36588 0.109203 0.986596
Spine1  2.53466 0.545218 -1.50656
HEad  -4.88229 0.479224 -3.34759
LeftShoulder1  0.177695 1.7555 -1.93817
LeftArm  -22.8678 7.22426 -17.841
LeftForeArm  -2.53531 -0.378881 3.68945
LeftHand  -0.0430439 8.10769 0.0622545
RightShoulder  0.0783694 -2.86722 4.6216
RightArm  -9.14803 1.85275 6.66129
RightForeArm  0.066839 0.531666 -2.4125
RightHand  -0.0462024 6.66967 -0.793324
LeftUpLeg  6.21455 7.18922 4.85393
LeftLeg  0.840321 -0.769761 1.22196
LeftFoot  -2.09657 0.202391 -2.34817
LeftToes  -1.20963e-009 8.6283e-011 2.04439e-011
4
root  27.972 39.7597 2.03696 -160.21 -85.4943 156.896
RightUpLeg  6.85089 -8.32055 -4.14059
RightLeg  5.36323 4.03838 0.0674952
RightFoot  -7.32507 -0.00657617 -1.22598
RightToes  5.82063e-011 0 -3.6325e-017
Spine  3.48723 0.1138 1.04196
Spine1  2.5754 0.514531 -1.27007
HEad  -4.95443 0.755851 -3.61163
LeftShoulder1  0.172572 1.84748 -2.21774
LeftArm  -23.3918 7.58126 -18.4191
LeftForeArm  -1.19547 -1.52541 3.7712
LeftHand  -0.0259704 7.79487 0.721619
RightShoulder  0.0549692 -3.05665 4.71917
RightArm  -9.61321 2.04521 6.99304
RightForeArm  -0.133539 1.21033 -2.44515
RightHand  -0.0906604 6.2296 -1.24283
LeftUpLeg  6.11329 7.43833 5.17686
LeftLeg  1.39326 -1.13362 1.03054
LeftFoot  -2.47936 0.196694 -2.34583
LeftToes  -1.20963e-009 8.6283e-011 2.04439e-011
5
root  27.9325 39.7116 2.01033 -162.637 -85.4676 159.43
RightUpLeg  6.59867 -8.21636 -3.87955
RightLeg  5.8058 4.0339 0.0856096
RightFoot  -7.73734 -0.012501 -1.27165
RightToes  5.82063e-011 0 -3.6325e-017
Spine  3.74928 0.118949 1.35429
Spine1  2.38981 0.495582 -1.03344
HEad  -4.9354 1.23877 -4.06525
LeftShoulder1  0.179627 1.88049 -2.95783
LeftArm  -23.779 8.85727 -19.0728
LeftForeArm  0.758876 -4.14537 3.55332
LeftHand  -0.0245573 7.17665 0.891822
RightShoulder  0.0705456 -2.93451 4.73814
RightArm  -10.1774 1.31316 7.80901
RightForeArm  -0.564125 3.045 -2.44368
RightHand  -0.146491 5.56124 -1.87685
LeftUpLeg  5.3619 7.71024 5.57921
LeftLeg  2.94594 -1.38428 0.749958
LeftFoot  -3.37525 0.178459 -2.27038
LeftToes  -1.20963e-009 8.6283e-011 2.04439e-011
6
root  27.9061 39.6138 1.99351 -165.867 -85.5634 162.692
RightUpLeg  6.12725 -8.27928 -3.6227
RightLeg  6.92189 4.07503 0.2717
RightFoot  -8.57205 -0.0233697 -1.43568
RightToes  5.82063e-011 0 -3.6325e-017
Spine  4.27234 -0.0639104 2.16435
Spine1  2.25914 0.432167 -1.25114
HEad  -5.36936 1.80023 -4.05827
LeftShoulder1  0.150152 2.25356 -4.0962
LeftArm  -24.4597 10.1392 -19.855
LeftForeArm  3.33265 -7.72197 3.23483
LeftHand  -0.0062377 7.03414 2.05569
RightShoulder  0.0728905 -2.92819 5.14129
RightArm  -10.0879 0.393712 9.08485
RightForeArm  -1.84929 5.81382 -2.05162
RightHand  -0.214626 5.1533 -2.66161
LeftUpLeg  4.04072 7.95275 6.139
LeftLeg  5.78073 -1.73472 0.325366
LeftFoot  -4.89441 0.153648 -2.20309
LeftToes  -1.20963e-009 8.6283e-011 2.04439e-011
7
root  27.9134 39.4684 2.01598 -169.059 -85.8962 165.978
RightUpLeg  5.2379 -8.55187 -3.40679
RightLeg  8.72757 4.00243 0.535419
RightFoot  -9.70071 -0.0446916 -1.45065
RightToes  5.82063e-011 0 -3.6325e-017
Spine  4.76092 -0.177781 3.46294
Spine1  2.47164 0.522651 -1.4819
HEad  -6.52629 1.40244 -4.90512
LeftShoulder1  0.130908 2.59664 -6.6337
LeftArm  -25.046 10.5189 -19.8531
LeftForeArm  6.70261 -11.5798 2.16887
LeftHand  -0.00573903 6.57181 2.66193
RightShoulder  0.0365942 -3.2347 6.73002
RightArm  -10.1061 -0.873194 9.58454
RightForeArm  -1.93911 9.93752 -1.40818
RightHand  -0.296545 5.73007 -3.42398
LeftUpLeg  1.85735 7.25546 6.37978
LeftLeg  9.86541 -1.36665 0.243888
LeftFoot  -6.47654 0.136457 -2.30417
LeftToes  -1.20963e-009 8.6283e-011 2.04439e-011
8
root  27.9426 39.3122 2.05492 -171.369 -86.6814 168.265
RightUpLeg  4.60939 -9.01886 -3.38001
RightLeg  10.3402 3.7663 0.94582
RightFoot  -10.8742 -0.0683993 -1.29294
RightToes  5.82063e-011 0 -3.6325e-017
Spine  5.6049 -0.479603 4.90454
Spine1  2.6153 0.477388 -1.83732
HEad  -7.19816 1.30355 -5.04243
LeftShoulder1  0.133898 2.70394 -9.34082
LeftArm  -27.5091 11.3223 -20.2609
LeftForeArm  12.8278 -15.9521 0.146153
LeftHand  -0.00645689 6.07004 3.6953
RightShoulder  -0.0159802 -3.58465 8.63038
RightArm  -11.5235 -2.61999 10.6287
RightForeArm  -0.370037 14.7494 0.0284296
RightHand  -0.432815 5.62734 -4.86241
LeftUpLeg  -1.12899 5.80653 6.5661
LeftLeg  15.3783 -0.622005 0.164898
LeftFoot  -7.58979 0.147292 -3.14006
LeftToes  -1.20963e-009 8.6283e-011 2.04439e-011
9
root  27.9682 39.1519 2.10443 -172.5 -87.7434 169.436
RightUpLeg  3.9061 -9.56111 -3.37318
RightLeg  12.0953 3.28801 1.27533
RightFoot  -12.0686 -0.0883348 -1.10143
RightToes  5.82063e-011 0 -3.6325e-017
Spine  6.22366 -0.786131 6.51089
Spine1  3.11669 0.507983 -2.37336
HEad  -8.3621 0.840422 -5.35374
LeftShoulder1  0.0673678 3.14461 -11.9939
LeftArm  -29.7378 11.5097 -21.5417
LeftForeArm  19.9747 -20.1798 -2.36686
LeftHand  -0.0332101 5.10408 3.72478
RightShoulder  -0.0964225 -4.00222 11.2519
RightArm  -13.9239 -4.32638 11.9206
RightForeArm  3.38309 18.9745 2.32835
RightHand  -0.559572 6.29673 -5.88976
LeftUpLeg  -4.93053 4.93018 6.87374
LeftLeg  22.0053 -1.10385 -0.190886
LeftFoot  -7.66852 0.221998 -5.43221
LeftToes  -1.20963e-009 8.6283e-011 2.04439e-011
10
root  27.9711 39.0047 2.17243 -170.918 -89.0525 167.842
RightUpLeg  3.41152 -10.1467 -3.46561
RightLeg  13.6383 2.59778 1.51012
RightFoot  -13.1661 -0.101959 -0.788685
RightToes  5.82063e-011 0 -3.6325e-017
Spine  6.71062 -0.978705 7.87614
Spine1  3.79682 0.532118 -2.32896
HEad  -8.65707 0.217457 -5.75488
LeftShoulder1  -0.0382723 3.67831 -15.5978
LeftArm  -28.9562 10.5693 -23.2309
LeftForeArm  23.5089 -23.254 -3.71841
LeftHand  -0.0278127 5.30572 3.76163
RightShoulder  -0.22099 -4.54472 13.8134
RightArm  -14.0583 -5.64666 13.8086
RightForeArm  6.11098 21.9629 4.11291
RightHand  -0.582273 6.34127 -6.10386
LeftUpLeg  -9.24832 4.38681 7.19394
LeftLeg  29.3002 -2.05804 -0.910229
LeftFoot  -6.14939 0.430188 -8.53336
LeftToes  -1.20963e-009 8.6283e-011 2.04439e-011
11
root  27.9011 38.8775 2.26587 6.17002 -89.8006 -9.19927
RightUpLeg  3.15628 -10.6891 -3.61919
RightLeg  14.7316 2.10139 1.73515
RightFoot  -14.0311 -0.10943 -0.632125
RightToes  5.82063e-011 0 -3.6325e-017
Spine  6.97639 -1.06767 9.3468
Spine1  4.29605 0.702547 -2.69015
HEad  -8.47574 -0.737329 -5.9669
LeftShoulder1  -0.12375 3.99952 -18.4213
LeftArm  -25.4478 10.1942 -25.9821
LeftForeArm  24.695 -25.3791 -4.13652
LeftHand  -0.0333908 5.08274 3.82434
RightShoulder  -0.325174 -4.87651 16.4932
RightArm  -10.679 -5.98071 16.5368
RightForeArm  6.64545 22.5593 4.36133
RightHand  -0.485778 6.64072 -5.03921
LeftUpLeg  -13.5439 4.32376 7.31812
LeftLeg  35.9453 -2.0962 -1.27016
LeftFoot  -2.8968 0.738883 -9.89344
LeftToes  -1.20963e-009 8.6283e-011 2.04439e-011
12
root  27.7292 38.7987 2.35169 -9.43566 -89.2479 6.15486
RightUpLeg  3.51246 -10.9664 -4.0358
RightLeg  15.4404 1.96866 1.73343
RightFoot  -14.7977 -0.108583 -0.272672
RightToes  5.82063e-011 0 -3.6325e-017
Spine  7.16865 -0.753924 10.0334
Spine1  4.89501 1.08015 -2.64942
HEad  -7.89454 -1.12548 -6.97538
LeftShoulder1  -0.265872 4.43921 -21.7367
LeftArm  -21.0975 9.32034 -28.4641
LeftForeArm  25.7766 -25.5959 -4.11371
LeftHand  -0.036678 4.84762 2.67873
RightShoulder  -0.426969 -5.16127 18.7894
RightArm  -5.21836 -5.11739 20.1484
RightForeArm  7.12124 20.6702 3.67766
RightHand  -0.396451 5.12321 -4.72659
LeftUpLeg  -16.4954 4.82682 7.02125
LeftLeg  40.189 -2.04603 -1.49552
LeftFoot  -0.60887 0.817927 -8.6265
LeftToes  -1.20963e-009 8.6283e-011 2.04439e-011
13
root  27.4892 38.8044 2.45231 -24.6423 -88.6377 21.4234
RightUpLeg  4.03657 -11.2373 -4.75364
RightLeg  15.2337 1.84533 1.66237
RightFoot  -15.0431 -0.104022 -0.0724267
RightToes  5.82063e-011 0 -3.6325e-017
Spine  7.03095 -0.546651 10.0342
Spine1  5.2409 1.2476 -2.75778
HEad  -6.76252 -1.6085 -7.29803
LeftShoulder1  -0.493645 5.09937 -24.7702
LeftArm  -15.133 8.9294 -30.9308
LeftForeArm  25.0038 -24.3026 -3.88343
LeftHand  -0.0280606 5.33217 1.63484
RightShoulder  -0.495968 -5.26691 21.2363
RightArm  1.16464 -2.70739 24.3762
RightForeArm  8.32806 16.1403 2.74529
RightHand  -0.198175 6.13455 -2.29521
LeftUpLeg  -18.5907 5.53812 6.4508
LeftLeg  41.0447 -3.1302 -2.53648
LeftFoot  -1.9434 0.727883 -8.7216
LeftToes  -1.20963e-009 8.6283e-011 2.04439e-011
